<svg width="20" height="20" viewBox="0 0 20 20" fill="none" xmlns="http://www.w3.org/2000/svg">
<rect x="0.5" y="0.5" width="19" height="19" stroke="#F0F6FC" stroke-opacity="0.6"/>
<path d="M16.9992 16.5554C16.9992 16.8007 13.8653 16.9995 9.99958 16.9995C6.13382 16.9995 3 16.8007 3 16.5554C3 16.3102 6.13382 16.1113 9.99958 16.1113C13.8653 16.1113 16.9992 16.3102 16.9992 16.5554Z" fill="#696767" fill-opacity="0.16"/>
<path d="M10.5391 9.39374C10.5391 9.23777 10.6656 9.11133 10.8217 9.11133H12.5175C12.6735 9.11133 12.8001 9.23777 12.8001 9.39374V16.1717C12.8001 16.3277 12.6735 16.4541 12.5175 16.4541H10.8217C10.6656 16.4541 10.5391 16.3277 10.5391 16.1717V9.39374Z" fill="#F0F6FC" fill-opacity="0.6"/>
<path d="M14.2148 7.84296C14.2148 7.68699 14.3414 7.56055 14.4975 7.56055H16.1932C16.3493 7.56055 16.4759 7.68699 16.4759 7.84296V16.1742C16.4759 16.3302 16.3493 16.4566 16.1932 16.4566H14.4975C14.3414 16.4566 14.2148 16.3302 14.2148 16.1742V7.84296Z" fill="#F0F6FC" fill-opacity="0.6"/>
<path d="M6.72266 12.3586C6.72266 12.2026 6.84919 12.0762 7.00528 12.0762H8.70105C8.85714 12.0762 8.98368 12.2026 8.98368 12.3586V16.1712C8.98368 16.3272 8.85714 16.4536 8.70105 16.4536H7.00528C6.84919 16.4536 6.72266 16.3272 6.72266 16.1712V12.3586Z" fill="#F0F6FC" fill-opacity="0.6"/>
<path d="M3.33203 13.6301C3.33203 13.4741 3.45857 13.3477 3.61466 13.3477H5.31042C5.46651 13.3477 5.59305 13.4741 5.59305 13.6301V16.1718C5.59305 16.3278 5.46651 16.4542 5.31042 16.4542H3.61466C3.45857 16.4542 3.33203 16.3278 3.33203 16.1718V13.6301Z" fill="#F0F6FC" fill-opacity="0.6"/>
<path fill-rule="evenodd" clip-rule="evenodd" d="M14.8743 4.48242L16.4863 4.73582L15.4607 6.00404L15.2183 5.37501L12.2141 6.53092C12.2338 6.58833 12.2444 6.6499 12.2444 6.71396C12.2444 7.02591 11.9914 7.2788 11.6792 7.2788C11.5441 7.2788 11.4202 7.2315 11.323 7.15258L8.34453 9.38473C8.39687 9.47036 8.42703 9.57101 8.42703 9.6787C8.42703 9.99064 8.17395 10.2435 7.86175 10.2435C7.66247 10.2435 7.48728 10.1405 7.38662 9.98483L5.00381 11.0431C5.02517 11.1026 5.03681 11.1668 5.03681 11.2337C5.03681 11.5456 4.78373 11.7985 4.47153 11.7985C4.15934 11.7985 3.90625 11.5456 3.90625 11.2337C3.90625 10.9217 4.15934 10.6689 4.47153 10.6689C4.61282 10.6689 4.742 10.7206 4.8411 10.8063L7.29764 9.71529C7.29686 9.70319 7.29647 9.69099 7.29647 9.6787C7.29647 9.36675 7.54955 9.11386 7.86175 9.11386C7.9623 9.11386 8.05673 9.1401 8.13853 9.18609L11.1549 6.92553C11.1284 6.86019 11.1139 6.78877 11.1139 6.71396C11.1139 6.40202 11.367 6.14913 11.6792 6.14913C11.8225 6.14913 11.9534 6.20243 12.053 6.29028L15.1167 5.11146L14.8743 4.48242ZM11.6792 6.99638C11.8353 6.99638 11.9618 6.86994 11.9618 6.71396C11.9618 6.55799 11.8353 6.43155 11.6792 6.43155C11.5231 6.43155 11.3965 6.55799 11.3965 6.71396C11.3965 6.86994 11.5231 6.99638 11.6792 6.99638ZM8.14439 9.6787C8.14439 9.83467 8.01785 9.96111 7.86175 9.96111C7.70565 9.96111 7.57911 9.83467 7.57911 9.6787C7.57911 9.52272 7.70565 9.39628 7.86175 9.39628C8.01785 9.39628 8.14439 9.52272 8.14439 9.6787ZM4.75417 11.2337C4.75417 11.3897 4.62763 11.5161 4.47153 11.5161C4.31543 11.5161 4.18889 11.3897 4.18889 11.2337C4.18889 11.0777 4.31543 10.9513 4.47153 10.9513C4.62763 10.9513 4.75417 11.0777 4.75417 11.2337Z" fill="#F0F6FC" fill-opacity="0.6"/>
<path d="M8.27848 5.65918C8.27848 5.43481 8.45211 5.22707 8.73321 5.0858C8.66707 4.76171 8.53478 4.45424 8.36116 4.18001C8.06352 4.27142 7.79896 4.2548 7.64187 4.09691C7.48478 3.93902 7.45998 3.67311 7.55919 3.37395C7.27809 3.19944 6.97218 3.06648 6.64974 3C6.50919 3.27423 6.3025 3.44874 6.07927 3.44874C5.85604 3.44874 5.64935 3.27423 5.50879 3C5.18635 3.06648 4.88045 3.19944 4.60761 3.37395C4.69856 3.67311 4.68202 3.93902 4.52493 4.09691C4.36785 4.2548 4.10328 4.27973 3.80564 4.18001C3.63202 4.45424 3.49974 4.76171 3.43359 5.0858C3.70643 5.22707 3.88005 5.43481 3.88005 5.65918C3.88005 5.88355 3.70643 6.0913 3.43359 6.23257C3.49974 6.55666 3.63202 6.86413 3.80564 7.13835C4.10328 7.04694 4.36785 7.06356 4.52493 7.22145C4.68202 7.37934 4.70682 7.64526 4.60761 7.94442C4.88045 8.11893 5.17809 8.25189 5.50879 8.31837C5.64935 8.04414 5.85604 7.86963 6.07927 7.86963C6.3025 7.86963 6.50919 8.04414 6.64974 8.31837C6.97218 8.25189 7.27809 8.11893 7.55093 7.94442C7.45998 7.64526 7.47652 7.37934 7.6336 7.22145C7.79069 7.06356 8.05526 7.03863 8.3529 7.13835C8.52652 6.86413 8.6588 6.56497 8.72494 6.23257C8.45211 6.0913 8.27848 5.88355 8.27848 5.65918ZM6.07927 7.3461C5.15328 7.3461 4.40092 6.5899 4.40092 5.65918C4.40092 4.72847 5.15328 3.97226 6.07927 3.97226C7.00525 3.97226 7.75762 4.72847 7.75762 5.65918C7.75762 6.5899 7.00525 7.3461 6.07927 7.3461Z" fill="#F0F6FC" fill-opacity="0.6"/>
<path fill-rule="evenodd" clip-rule="evenodd" d="M6.09879 6.76109C6.70386 6.76109 7.19437 6.27049 7.19437 5.6653C7.19437 5.0601 6.70386 4.5695 6.09879 4.5695C5.49371 4.5695 5.0032 5.0601 5.0032 5.6653C5.0032 6.27049 5.49371 6.76109 6.09879 6.76109Z" fill="#F0F6FC" fill-opacity="0.6"/>
</svg>
