<svg width="36" height="34" viewBox="0 0 36 34" fill="none" xmlns="http://www.w3.org/2000/svg">
<rect x="0.5" y="0.5" width="34.9981" height="32.9972" rx="1" stroke="#F0F6FC" stroke-opacity="0.6"/>
<path d="M31.9981 30.1089C31.9981 30.5994 25.7305 30.997 17.999 30.997C10.2676 30.997 4 30.5994 4 30.1089C4 29.6183 10.2676 29.2207 17.999 29.2207C25.7305 29.2207 31.9981 29.6183 31.9981 30.1089Z" fill="#696767" fill-opacity="0.16"/>
<path d="M19.0742 15.7875C19.0742 15.4755 19.3273 15.2227 19.6395 15.2227H23.031C23.3431 15.2227 23.5962 15.4755 23.5962 15.7875V29.3433C23.5962 29.6553 23.3431 29.9081 23.031 29.9081H19.6395C19.3273 29.9081 19.0742 29.6553 19.0742 29.3433V15.7875Z" fill="#F0F6FC" fill-opacity="0.6"/>
<path d="M26.4258 12.6859C26.4258 12.374 26.6789 12.1211 26.991 12.1211H30.3825C30.6947 12.1211 30.9478 12.374 30.9478 12.6859V29.3483C30.9478 29.6602 30.6947 29.9131 30.3825 29.9131H26.991C26.6789 29.9131 26.4258 29.6602 26.4258 29.3483V12.6859Z" fill="#F0F6FC" fill-opacity="0.6"/>
<path d="M11.4414 21.7172C11.4414 21.4052 11.6945 21.1523 12.0067 21.1523H15.3982C15.7103 21.1523 15.9634 21.4052 15.9634 21.7172V29.3423C15.9634 29.6543 15.7103 29.9072 15.3982 29.9072H12.0067C11.6945 29.9072 11.4414 29.6543 11.4414 29.3423V21.7172Z" fill="#F0F6FC" fill-opacity="0.6"/>
<path d="M4.66016 24.2601C4.66016 23.9482 4.91323 23.6953 5.22541 23.6953H8.61691C8.92908 23.6953 9.18216 23.9482 9.18216 24.2601V29.3436C9.18216 29.6555 8.92908 29.9084 8.61691 29.9084H5.22541C4.91323 29.9084 4.66016 29.6555 4.66016 29.3436V24.2601Z" fill="#F0F6FC" fill-opacity="0.6"/>
<path fill-rule="evenodd" clip-rule="evenodd" d="M27.7453 5.9668L30.9692 6.47359L28.918 9.01001L28.4332 7.75196L22.4238 10.0642C22.4628 10.1786 22.484 10.3014 22.484 10.429C22.484 11.0529 21.9779 11.5587 21.3535 11.5587C21.0839 11.5587 20.8364 11.4644 20.6421 11.3071L14.6858 15.771C14.79 15.942 14.8499 16.1428 14.8499 16.3575C14.8499 16.9814 14.3438 17.4872 13.7194 17.4872C13.321 17.4872 12.9708 17.2813 12.7694 16.9702L8.00369 19.0867C8.04642 19.2058 8.0697 19.3342 8.0697 19.468C8.0697 20.0919 7.56353 20.5976 6.93915 20.5976C6.31476 20.5976 5.80859 20.0919 5.80859 19.468C5.80859 18.8441 6.31476 18.3383 6.93915 18.3383C7.22171 18.3383 7.48007 18.4419 7.67826 18.6131L12.5912 16.4312C12.5896 16.4069 12.5888 16.3823 12.5888 16.3575C12.5888 15.7337 13.095 15.2279 13.7194 15.2279C13.9211 15.2279 14.1105 15.2807 14.2745 15.3732L20.3054 10.8534C20.2522 10.7224 20.2229 10.5791 20.2229 10.429C20.2229 9.80515 20.7291 9.29938 21.3535 9.29938C21.6407 9.29938 21.9028 9.40638 22.1023 9.58265L28.2301 7.22486L27.7453 5.9668ZM21.3535 10.9939C21.6657 10.9939 21.9188 10.741 21.9188 10.429C21.9188 10.1171 21.6657 9.86421 21.3535 9.86421C21.0413 9.86421 20.7882 10.1171 20.7882 10.429C20.7882 10.741 21.0413 10.9939 21.3535 10.9939ZM14.2847 16.3575C14.2847 16.6695 14.0316 16.9224 13.7194 16.9224C13.4072 16.9224 13.1541 16.6695 13.1541 16.3575C13.1541 16.0456 13.4072 15.7927 13.7194 15.7927C14.0316 15.7927 14.2847 16.0456 14.2847 16.3575ZM7.50442 19.468C7.50442 19.7799 7.25134 20.0328 6.93915 20.0328C6.62695 20.0328 6.37387 19.7799 6.37387 19.468C6.37387 19.156 6.62695 18.9031 6.93915 18.9031C7.25134 18.9031 7.50442 19.156 7.50442 19.468Z" fill="#F0F6FC" fill-opacity="0.6"/>
<path d="M14.553 8.31832C14.553 7.86959 14.9002 7.45409 15.4624 7.17156C15.3301 6.52339 15.0656 5.90846 14.7183 5.36C14.1231 5.54282 13.5939 5.50958 13.2798 5.19381C12.9656 4.87803 12.916 4.3462 13.1144 3.74789C12.5522 3.39887 11.9404 3.13296 11.2955 3C11.0144 3.54845 10.601 3.89747 10.1546 3.89747C9.70813 3.89747 9.29475 3.54845 9.01365 3C8.36877 3.13296 7.75696 3.39887 7.2113 3.74789C7.39319 4.3462 7.36012 4.87803 7.04594 5.19381C6.73177 5.50958 6.20264 5.55944 5.60737 5.36C5.26013 5.90846 4.99556 6.52339 4.86328 7.17156C5.40895 7.45409 5.75619 7.86959 5.75619 8.31832C5.75619 8.76705 5.40895 9.18255 4.86328 9.46508C4.99556 10.1133 5.26013 10.7282 5.60737 11.2766C6.20264 11.0938 6.73177 11.1271 7.04594 11.4428C7.36012 11.7586 7.40972 12.2904 7.2113 12.8888C7.75696 13.2378 8.35223 13.5037 9.01365 13.6366C9.29475 13.0882 9.70813 12.7392 10.1546 12.7392C10.601 12.7392 11.0144 13.0882 11.2955 13.6366C11.9404 13.5037 12.5522 13.2378 13.0979 12.8888C12.916 12.2904 12.9491 11.7586 13.2632 11.4428C13.5774 11.1271 14.1065 11.0772 14.7018 11.2766C15.049 10.7282 15.3136 10.1299 15.4459 9.46508C14.9002 9.18255 14.553 8.76705 14.553 8.31832ZM10.1546 11.6921C8.30263 11.6921 6.79791 10.1797 6.79791 8.31832C6.79791 6.45691 8.30263 4.94451 10.1546 4.94451C12.0065 4.94451 13.5113 6.45691 13.5113 8.31832C13.5113 10.1797 12.0065 11.6921 10.1546 11.6921Z" fill="#F0F6FC" fill-opacity="0.6"/>
<path fill-rule="evenodd" clip-rule="evenodd" d="M10.1936 10.5221C11.4038 10.5221 12.3848 9.54092 12.3848 8.33055C12.3848 7.12017 11.4038 6.13897 10.1936 6.13897C8.98348 6.13897 8.00247 7.12017 8.00247 8.33055C8.00247 9.54092 8.98348 10.5221 10.1936 10.5221Z" fill="#F0F6FC" fill-opacity="0.6"/>
</svg>
