<svg width="204" height="32" viewBox="0 0 204 32" fill="none" xmlns="http://www.w3.org/2000/svg">
<path d="M48.5119 30.4957C48.5119 31.3271 37.764 32.0011 24.5059 32.0011C11.2478 32.0011 0.5 31.3271 0.5 30.4957C0.5 29.6642 11.2478 28.9902 24.5059 28.9902C37.764 28.9902 48.5119 29.6642 48.5119 30.4957Z" fill="#696767" fill-opacity="0.16"/>
<path d="M26.3574 6.22301C26.3574 5.69426 26.7914 5.26562 27.3267 5.26562H33.1426C33.6779 5.26562 34.1119 5.69426 34.1119 6.22301V29.2003C34.1119 29.729 33.6779 30.1577 33.1426 30.1577H27.3267C26.7914 30.1577 26.3574 29.729 26.3574 29.2003V6.22301Z" fill="#533582"/>
<path d="M38.957 0.957386C38.957 0.428636 39.391 0 39.9263 0H45.7422C46.2775 0 46.7115 0.428636 46.7115 0.957386V29.2003C46.7115 29.729 46.2775 30.1577 45.7422 30.1577H39.9263C39.391 30.1577 38.957 29.729 38.957 29.2003V0.957386Z" fill="#533582"/>
<path d="M13.2695 16.2757C13.2695 15.747 13.7035 15.3184 14.2388 15.3184H20.0547C20.59 15.3184 21.024 15.747 21.024 16.2757V29.2005C21.024 29.7292 20.59 30.1578 20.0547 30.1578H14.2388C13.7035 30.1578 13.2695 29.7292 13.2695 29.2005V16.2757Z" fill="#533582"/>
<path d="M1.64062 20.5843C1.64062 20.0556 2.0746 19.627 2.60993 19.627H8.42577C8.9611 19.627 9.39507 20.0556 9.39507 20.5843V29.2008C9.39507 29.7296 8.9611 30.1582 8.42577 30.1582H2.60993C2.0746 30.1582 1.64062 29.7296 1.64062 29.2008V20.5843Z" fill="#533582"/>
<path d="M198.454 24.1721C197.5 24.1721 196.643 24.0206 195.886 23.7175C195.128 23.4069 194.484 22.9789 193.953 22.4334C193.431 21.888 193.029 21.2554 192.749 20.5357C192.468 19.8084 192.328 19.0356 192.328 18.2174V17.7629C192.328 16.8311 192.461 15.9788 192.726 15.206C192.991 14.4333 193.37 13.7628 193.863 13.1946C194.363 12.6264 194.969 12.1908 195.681 11.8878C196.393 11.5772 197.197 11.4219 198.091 11.4219C198.962 11.4219 199.735 11.5658 200.409 11.8537C201.084 12.1416 201.648 12.5507 202.103 13.081C202.565 13.6113 202.914 14.2477 203.149 14.9901C203.384 15.725 203.501 16.5432 203.501 17.4447V18.8084H193.726V16.6265H200.284V16.3765C200.284 15.9219 200.201 15.5166 200.034 15.1606C199.875 14.7969 199.633 14.509 199.307 14.2969C198.981 14.0848 198.564 13.9787 198.057 13.9787C197.625 13.9787 197.253 14.0734 196.943 14.2628C196.632 14.4522 196.378 14.7174 196.181 15.0583C195.992 15.3992 195.848 15.8007 195.749 16.2629C195.658 16.7174 195.613 17.2174 195.613 17.7629V18.2174C195.613 18.7099 195.681 19.1644 195.818 19.5811C195.962 19.9978 196.162 20.3576 196.42 20.6607C196.685 20.9637 197.003 21.1986 197.375 21.3652C197.754 21.5319 198.182 21.6152 198.659 21.6152C199.25 21.6152 199.799 21.5016 200.307 21.2743C200.822 21.0395 201.266 20.6872 201.637 20.2175L203.228 21.9448C202.971 22.316 202.618 22.6721 202.171 23.013C201.732 23.3539 201.201 23.6342 200.58 23.8539C199.959 24.066 199.25 24.1721 198.454 24.1721Z" fill="#533582"/>
<path d="M187.771 14.331V23.9448H184.498V11.6492H187.578L187.771 14.331ZM191.477 11.5696L191.42 14.6037C191.261 14.581 191.068 14.5621 190.84 14.5469C190.621 14.5242 190.42 14.5128 190.238 14.5128C189.776 14.5128 189.374 14.5734 189.033 14.6947C188.7 14.8083 188.419 14.9788 188.192 15.206C187.972 15.4333 187.806 15.7098 187.692 16.0356C187.586 16.3614 187.525 16.7326 187.51 17.1492L186.851 16.9447C186.851 16.1492 186.93 15.4182 187.09 14.7515C187.249 14.0772 187.48 13.4901 187.783 12.9901C188.094 12.4901 188.472 12.1037 188.919 11.831C189.367 11.5582 189.878 11.4219 190.454 11.4219C190.636 11.4219 190.821 11.437 191.011 11.4673C191.2 11.4901 191.356 11.5241 191.477 11.5696Z" fill="#533582"/>
<path d="M170.834 17.922V17.6833C170.834 16.7818 170.963 15.9523 171.22 15.1947C171.478 14.4295 171.853 13.7666 172.346 13.206C172.838 12.6454 173.444 12.2098 174.164 11.8992C174.884 11.581 175.71 11.4219 176.642 11.4219C177.574 11.4219 178.404 11.581 179.131 11.8992C179.859 12.2098 180.469 12.6454 180.961 13.206C181.461 13.7666 181.84 14.4295 182.098 15.1947C182.355 15.9523 182.484 16.7818 182.484 17.6833V17.922C182.484 18.8159 182.355 19.6455 182.098 20.4107C181.84 21.1682 181.461 21.8311 180.961 22.3993C180.469 22.9599 179.862 23.3956 179.143 23.7062C178.423 24.0168 177.597 24.1721 176.665 24.1721C175.733 24.1721 174.903 24.0168 174.176 23.7062C173.456 23.3956 172.846 22.9599 172.346 22.3993C171.853 21.8311 171.478 21.1682 171.22 20.4107C170.963 19.6455 170.834 18.8159 170.834 17.922ZM174.107 17.6833V17.922C174.107 18.4371 174.153 18.9182 174.244 19.3652C174.335 19.8122 174.479 20.2061 174.676 20.547C174.88 20.8804 175.146 21.1417 175.471 21.3311C175.797 21.5205 176.195 21.6152 176.665 21.6152C177.119 21.6152 177.51 21.5205 177.836 21.3311C178.161 21.1417 178.423 20.8804 178.62 20.547C178.817 20.2061 178.961 19.8122 179.052 19.3652C179.15 18.9182 179.199 18.4371 179.199 17.922V17.6833C179.199 17.1833 179.15 16.7136 179.052 16.2742C178.961 15.8273 178.813 15.4333 178.608 15.0924C178.411 14.7439 178.15 14.4712 177.824 14.2742C177.498 14.0772 177.104 13.9787 176.642 13.9787C176.18 13.9787 175.786 14.0772 175.46 14.2742C175.142 14.4712 174.88 14.7439 174.676 15.0924C174.479 15.4333 174.335 15.8273 174.244 16.2742C174.153 16.7136 174.107 17.1833 174.107 17.6833Z" fill="#533582"/>
<path d="M169.79 11.6494V13.9676H162.629V11.6494H169.79ZM164.402 8.61523H167.675V20.2404C167.675 20.5965 167.721 20.8692 167.812 21.0586C167.91 21.248 168.054 21.3806 168.244 21.4564C168.433 21.5245 168.672 21.5586 168.96 21.5586C169.164 21.5586 169.346 21.5511 169.505 21.5359C169.672 21.5132 169.812 21.4904 169.926 21.4677L169.937 23.8769C169.657 23.9678 169.354 24.0397 169.028 24.0928C168.702 24.1458 168.342 24.1723 167.948 24.1723C167.228 24.1723 166.599 24.0549 166.061 23.82C165.531 23.5776 165.122 23.1912 164.834 22.6609C164.546 22.1306 164.402 21.4336 164.402 20.57V8.61523Z" fill="#533582"/>
<path d="M158.242 19.6153C158.242 19.3198 158.197 19.0546 158.106 18.8198C158.023 18.5774 157.864 18.3577 157.629 18.1607C157.394 17.9561 157.064 17.7554 156.64 17.5584C156.216 17.3614 155.666 17.1569 154.992 16.9448C154.242 16.7023 153.529 16.4296 152.855 16.1266C152.188 15.8235 151.597 15.4713 151.082 15.0697C150.574 14.6606 150.173 14.1871 149.877 13.6493C149.589 13.1114 149.445 12.4864 149.445 11.7742C149.445 11.0848 149.597 10.4598 149.9 9.89919C150.203 9.331 150.627 8.84615 151.173 8.44462C151.718 8.03553 152.362 7.72113 153.105 7.50143C153.855 7.28173 154.677 7.17188 155.571 7.17188C156.791 7.17188 157.856 7.39158 158.765 7.83098C159.675 8.27038 160.379 8.87266 160.879 9.63782C161.387 10.403 161.641 11.278 161.641 12.2629H158.254C158.254 11.778 158.152 11.3538 157.947 10.9901C157.75 10.6189 157.447 10.3272 157.038 10.1151C156.636 9.90298 156.128 9.79692 155.515 9.79692C154.924 9.79692 154.431 9.88783 154.037 10.0697C153.643 10.2439 153.347 10.4825 153.15 10.7856C152.953 11.081 152.855 11.4144 152.855 11.7856C152.855 12.0659 152.923 12.3197 153.06 12.547C153.203 12.7742 153.416 12.9864 153.696 13.1833C153.976 13.3803 154.321 13.5659 154.73 13.7402C155.14 13.9144 155.613 14.0849 156.151 14.2515C157.053 14.5243 157.845 14.8311 158.527 15.172C159.216 15.5129 159.792 15.8955 160.254 16.3198C160.716 16.744 161.065 17.2251 161.3 17.763C161.535 18.3008 161.652 18.9107 161.652 19.5925C161.652 20.3122 161.512 20.9562 161.232 21.5244C160.951 22.0926 160.546 22.5736 160.016 22.9676C159.485 23.3615 158.852 23.6608 158.117 23.8653C157.382 24.0699 156.56 24.1722 155.651 24.1722C154.833 24.1722 154.026 24.0661 153.23 23.854C152.434 23.6343 151.711 23.3047 151.059 22.8653C150.415 22.4259 149.9 21.8653 149.513 21.1835C149.127 20.5016 148.934 19.6948 148.934 18.763H152.355C152.355 19.2781 152.434 19.7137 152.593 20.0698C152.753 20.4259 152.976 20.7138 153.264 20.9335C153.56 21.1532 153.908 21.3123 154.31 21.4107C154.719 21.5092 155.166 21.5585 155.651 21.5585C156.242 21.5585 156.727 21.4751 157.106 21.3085C157.492 21.1418 157.776 20.9107 157.958 20.6153C158.148 20.3198 158.242 19.9865 158.242 19.6153Z" fill="#533582"/>
<path d="M136.714 24.1721C135.759 24.1721 134.903 24.0206 134.145 23.7175C133.388 23.4069 132.744 22.9789 132.213 22.4334C131.69 21.888 131.289 21.2554 131.008 20.5357C130.728 19.8084 130.588 19.0356 130.588 18.2174V17.7629C130.588 16.8311 130.72 15.9788 130.986 15.206C131.251 14.4333 131.63 13.7628 132.122 13.1946C132.622 12.6264 133.229 12.1908 133.941 11.8878C134.653 11.5772 135.456 11.4219 136.351 11.4219C137.222 11.4219 137.995 11.5658 138.669 11.8537C139.344 12.1416 139.908 12.5507 140.363 13.081C140.825 13.6113 141.174 14.2477 141.408 14.9901C141.643 15.725 141.761 16.5432 141.761 17.4447V18.8084H131.986V16.6265H138.544V16.3765C138.544 15.9219 138.461 15.5166 138.294 15.1606C138.135 14.7969 137.893 14.509 137.567 14.2969C137.241 14.0848 136.824 13.9787 136.316 13.9787C135.885 13.9787 135.513 14.0734 135.203 14.2628C134.892 14.4522 134.638 14.7174 134.441 15.0583C134.252 15.3992 134.108 15.8007 134.009 16.2629C133.918 16.7174 133.873 17.2174 133.873 17.7629V18.2174C133.873 18.7099 133.941 19.1644 134.077 19.5811C134.221 19.9978 134.422 20.3576 134.68 20.6607C134.945 20.9637 135.263 21.1986 135.634 21.3652C136.013 21.5319 136.441 21.6152 136.919 21.6152C137.51 21.6152 138.059 21.5016 138.567 21.2743C139.082 21.0395 139.525 20.6872 139.897 20.2175L141.488 21.9448C141.23 22.316 140.878 22.6721 140.431 23.013C139.991 23.3539 139.461 23.6342 138.84 23.8539C138.218 24.066 137.51 24.1721 136.714 24.1721Z" fill="#2C0735"/>
<path d="M125.2 21.2632V6.49023H128.496V23.9451H125.53L125.2 21.2632ZM117.426 17.945V17.7063C117.426 16.7669 117.532 15.9146 117.744 15.1495C117.956 14.3767 118.267 13.7138 118.676 13.1608C119.085 12.6078 119.589 12.1797 120.188 11.8767C120.786 11.5737 121.468 11.4221 122.234 11.4221C122.954 11.4221 123.582 11.5737 124.12 11.8767C124.666 12.1797 125.128 12.6115 125.507 13.1722C125.894 13.7252 126.204 14.3805 126.439 15.1381C126.674 15.8881 126.845 16.7101 126.951 17.6041V18.1268C126.845 18.9829 126.674 19.7783 126.439 20.5132C126.204 21.2481 125.894 21.892 125.507 22.445C125.128 22.9905 124.666 23.4148 124.12 23.7178C123.575 24.0208 122.938 24.1723 122.211 24.1723C121.446 24.1723 120.764 24.017 120.165 23.7064C119.574 23.3958 119.074 22.9602 118.665 22.3996C118.263 21.839 117.956 21.1799 117.744 20.4223C117.532 19.6647 117.426 18.8389 117.426 17.945ZM120.699 17.7063V17.945C120.699 18.4526 120.737 18.926 120.813 19.3654C120.896 19.8048 121.029 20.195 121.211 20.5359C121.4 20.8693 121.643 21.1306 121.938 21.32C122.241 21.5018 122.609 21.5928 123.041 21.5928C123.601 21.5928 124.064 21.4678 124.427 21.2178C124.791 20.9602 125.068 20.6079 125.257 20.1609C125.454 19.7139 125.568 19.1988 125.598 18.6154V17.1268C125.575 16.6495 125.507 16.2215 125.393 15.8427C125.287 15.4563 125.128 15.1267 124.916 14.854C124.711 14.5813 124.454 14.3692 124.143 14.2176C123.84 14.0661 123.48 13.9904 123.063 13.9904C122.639 13.9904 122.275 14.0888 121.972 14.2858C121.669 14.4752 121.423 14.7366 121.233 15.0699C121.052 15.4033 120.915 15.7972 120.824 16.2518C120.741 16.6987 120.699 17.1836 120.699 17.7063Z" fill="#2C0735"/>
<path d="M112.118 21.172V15.6947C112.118 15.3007 112.053 14.9636 111.924 14.6833C111.796 14.3954 111.595 14.1719 111.322 14.0128C111.057 13.8537 110.712 13.7742 110.288 13.7742C109.924 13.7742 109.61 13.8386 109.344 13.9674C109.079 14.0886 108.875 14.2666 108.731 14.5015C108.587 14.7287 108.515 14.9977 108.515 15.3083H105.241C105.241 14.7856 105.362 14.2893 105.605 13.8196C105.847 13.3499 106.2 12.9371 106.662 12.581C107.124 12.2173 107.674 11.9332 108.31 11.7287C108.954 11.5241 109.674 11.4219 110.47 11.4219C111.424 11.4219 112.273 11.581 113.016 11.8992C113.758 12.2173 114.342 12.6946 114.766 13.331C115.198 13.9674 115.414 14.7628 115.414 15.7174V20.9789C115.414 21.6531 115.456 22.2061 115.539 22.638C115.622 23.0622 115.744 23.4334 115.903 23.7516V23.9448H112.595C112.436 23.6115 112.315 23.1948 112.231 22.6948C112.156 22.1872 112.118 21.6796 112.118 21.172ZM112.55 16.456L112.572 18.3084H110.742C110.31 18.3084 109.935 18.3576 109.617 18.4561C109.299 18.5546 109.037 18.6947 108.833 18.8765C108.628 19.0508 108.477 19.2553 108.378 19.4902C108.287 19.725 108.242 19.9826 108.242 20.2629C108.242 20.5432 108.306 20.797 108.435 21.0243C108.564 21.244 108.75 21.4183 108.992 21.547C109.234 21.6683 109.519 21.7289 109.844 21.7289C110.337 21.7289 110.765 21.6304 111.129 21.4334C111.493 21.2364 111.773 20.994 111.97 20.7061C112.175 20.4182 112.281 20.1455 112.288 19.8879L113.152 21.2743C113.031 21.5849 112.864 21.9069 112.652 22.2402C112.447 22.5736 112.186 22.888 111.868 23.1834C111.549 23.4713 111.167 23.71 110.72 23.8994C110.273 24.0812 109.742 24.1721 109.128 24.1721C108.348 24.1721 107.639 24.0168 107.003 23.7062C106.374 23.388 105.874 22.9524 105.503 22.3993C105.139 21.8387 104.957 21.2023 104.957 20.4902C104.957 19.8463 105.078 19.2743 105.321 18.7743C105.563 18.2743 105.919 17.8538 106.389 17.5129C106.867 17.1644 107.461 16.903 108.174 16.7288C108.886 16.547 109.712 16.456 110.651 16.456H112.55Z" fill="#2C0735"/>
<path d="M100.615 14.331V23.9448H97.3418V11.6492H100.422L100.615 14.331ZM104.321 11.5696L104.264 14.6037C104.105 14.581 103.911 14.5621 103.684 14.5469C103.464 14.5242 103.264 14.5128 103.082 14.5128C102.619 14.5128 102.218 14.5734 101.877 14.6947C101.543 14.8083 101.263 14.9788 101.036 15.206C100.816 15.4333 100.649 15.7098 100.536 16.0356C100.43 16.3614 100.369 16.7326 100.354 17.1492L99.6946 16.9447C99.6946 16.1492 99.7742 15.4182 99.9333 14.7515C100.092 14.0772 100.324 13.4901 100.627 12.9901C100.937 12.4901 101.316 12.1037 101.763 11.831C102.21 11.5582 102.722 11.4219 103.298 11.4219C103.48 11.4219 103.665 11.437 103.855 11.4673C104.044 11.4901 104.199 11.5241 104.321 11.5696Z" fill="#2C0735"/>
<path d="M91.8292 11.6492H94.7958V23.5357C94.7958 24.6569 94.5458 25.6077 94.0456 26.388C93.5531 27.1759 92.8636 27.7706 91.977 28.1721C91.0904 28.5812 90.0599 28.7858 88.8854 28.7858C88.3701 28.7858 87.8246 28.7176 87.2487 28.5812C86.6804 28.4449 86.1348 28.2328 85.612 27.9449C85.0967 27.657 84.6648 27.2933 84.3162 26.8539L85.7597 24.9221C86.1386 25.3615 86.5781 25.7024 87.0782 25.9448C87.5783 26.1948 88.1315 26.3198 88.7377 26.3198C89.3287 26.3198 89.8288 26.21 90.238 25.9903C90.6472 25.7782 90.9616 25.4638 91.1814 25.0471C91.4011 24.638 91.511 24.1418 91.511 23.5584V14.4901L91.8292 11.6492ZM83.5547 17.9447V17.7061C83.5547 16.7667 83.6683 15.9144 83.8957 15.1492C84.1306 14.3765 84.4602 13.7136 84.8845 13.1605C85.3164 12.6075 85.8393 12.1795 86.4531 11.8764C87.0668 11.5734 87.7602 11.4219 88.5331 11.4219C89.3514 11.4219 90.0372 11.5734 90.5903 11.8764C91.1435 12.1795 91.5981 12.6113 91.9543 13.1719C92.3104 13.7249 92.587 14.3803 92.784 15.1378C92.9886 15.8879 93.1477 16.7098 93.2614 17.6038V18.1265C93.1477 18.9826 92.9772 19.7781 92.7499 20.5129C92.5226 21.2478 92.2233 21.8917 91.852 22.4448C91.4807 22.9902 91.0185 23.4145 90.4653 23.7175C89.9197 24.0206 89.2681 24.1721 88.5103 24.1721C87.7526 24.1721 87.0668 24.0168 86.4531 23.7062C85.8469 23.3956 85.3278 22.9599 84.8959 22.3993C84.464 21.8387 84.1306 21.1796 83.8957 20.422C83.6683 19.6644 83.5547 18.8387 83.5547 17.9447ZM86.8281 17.7061V17.9447C86.8281 18.4523 86.8774 18.9258 86.9759 19.3652C87.0744 19.8046 87.226 20.1947 87.4305 20.5357C87.6427 20.869 87.9041 21.1304 88.2148 21.3198C88.5331 21.5016 88.9081 21.5925 89.3401 21.5925C89.9387 21.5925 90.4274 21.4675 90.8063 21.2175C91.1852 20.9599 91.4693 20.6076 91.6587 20.1607C91.8482 19.7137 91.9581 19.1985 91.9884 18.6152V17.1265C91.9732 16.6492 91.9088 16.2212 91.7951 15.8424C91.6815 15.456 91.5224 15.1265 91.3178 14.8537C91.1132 14.581 90.848 14.3689 90.5221 14.2174C90.1963 14.0659 89.8099 13.9901 89.3628 13.9901C88.9309 13.9901 88.5558 14.0886 88.2375 14.2856C87.9269 14.475 87.6654 14.7363 87.4533 15.0697C87.2487 15.403 87.0933 15.7969 86.9873 16.2515C86.8812 16.6985 86.8281 17.1833 86.8281 17.7061Z" fill="#2C0735"/>
<path d="M74.2227 14.0128V28.6722H70.9492V11.6492H73.984L74.2227 14.0128ZM82.0085 17.6606V17.8993C82.0085 18.7932 81.9024 19.6228 81.6902 20.3879C81.4856 21.1531 81.1825 21.8198 80.7809 22.388C80.3793 22.9486 79.8792 23.388 79.2806 23.7062C78.6896 24.0168 78.0076 24.1721 77.2347 24.1721C76.4845 24.1721 75.8329 24.0206 75.2797 23.7175C74.7266 23.4145 74.2606 22.9902 73.8817 22.4448C73.5104 21.8917 73.2111 21.2516 72.9838 20.5243C72.7564 19.797 72.5822 19.0167 72.4609 18.1834V17.5583C72.5822 16.6644 72.7564 15.8462 72.9838 15.1038C73.2111 14.3537 73.5104 13.706 73.8817 13.1605C74.2606 12.6075 74.7228 12.1795 75.2684 11.8764C75.8215 11.5734 76.4694 11.4219 77.212 11.4219C77.9924 11.4219 78.6782 11.5696 79.2692 11.8651C79.8679 12.1605 80.368 12.5848 80.7696 13.1378C81.1788 13.6909 81.4856 14.35 81.6902 15.1151C81.9024 15.8803 82.0085 16.7288 82.0085 17.6606ZM78.7237 17.8993V17.6606C78.7237 17.1379 78.6782 16.6568 78.5873 16.2174C78.5039 15.7704 78.3675 15.3803 78.1781 15.0469C77.9962 14.7136 77.7538 14.456 77.4507 14.2742C77.1551 14.0848 76.7952 13.9901 76.3709 13.9901C75.9238 13.9901 75.5411 14.0621 75.2229 14.206C74.9122 14.35 74.6584 14.5583 74.4614 14.831C74.2643 15.1038 74.1166 15.4295 74.0181 15.8083C73.9196 16.1871 73.859 16.6151 73.8362 17.0924V18.672C73.8741 19.2326 73.9802 19.7364 74.1545 20.1834C74.3288 20.6228 74.5978 20.9713 74.9615 21.2289C75.3252 21.4864 75.8026 21.6152 76.3936 21.6152C76.8255 21.6152 77.1892 21.5205 77.4848 21.3311C77.7803 21.1342 78.019 20.8652 78.2008 20.5243C78.3903 20.1834 78.5229 19.7894 78.5986 19.3425C78.682 18.8955 78.7237 18.4144 78.7237 17.8993Z" fill="#2C0735"/>
<path d="M64.9483 7.39844H68.3467V18.3304C68.3467 19.6032 68.0739 20.6752 67.5284 21.5464C66.9904 22.4176 66.244 23.0729 65.2892 23.5123C64.3421 23.9517 63.2509 24.1714 62.0158 24.1714C60.7807 24.1714 59.6819 23.9517 58.7196 23.5123C57.7648 23.0729 57.0147 22.4176 56.4691 21.5464C55.9311 20.6752 55.6621 19.6032 55.6621 18.3304V7.39844H59.072V18.3304C59.072 19.0729 59.1894 19.6789 59.4243 20.1486C59.6592 20.6184 59.9964 20.9631 60.4359 21.1828C60.883 21.4025 61.4096 21.5123 62.0158 21.5123C62.6371 21.5123 63.1638 21.4025 63.5957 21.1828C64.0352 20.9631 64.3686 20.6184 64.5959 20.1486C64.8308 19.6789 64.9483 19.0729 64.9483 18.3304V7.39844Z" fill="#2C0735"/>
</svg>
