<svg width="20" height="20" viewBox="0 0 20 20" fill="none" xmlns="http://www.w3.org/2000/svg">
<g clip-path="url(#clip0_1413_693)">
<g clip-path="url(#clip1_1413_693)">
<path d="M0.833984 2.50065V17.5007C0.833984 17.9427 1.00958 18.3666 1.32214 18.6792C1.6347 18.9917 2.05862 19.1673 2.50065 19.1673H17.5007C17.9427 19.1673 18.3666 18.9917 18.6792 18.6792C18.9917 18.3666 19.1673 17.9427 19.1673 17.5007V2.50065C19.1673 2.05862 18.9917 1.6347 18.6792 1.32214C18.3666 1.00958 17.9427 0.833984 17.5007 0.833984H2.50065C2.05862 0.833984 1.6347 1.00958 1.32214 1.32214C1.00958 1.6347 0.833984 2.05862 0.833984 2.50065Z" fill="#52C41A"/>
<path opacity="0.1" d="M17.5007 18.9577H2.50065C2.05862 18.9577 1.6347 18.7821 1.32214 18.4695C1.00958 18.157 0.833984 17.733 0.833984 17.291V17.4993C0.833984 17.9414 1.00958 18.3653 1.32214 18.6779C1.6347 18.9904 2.05862 19.166 2.50065 19.166H17.5007C17.9427 19.166 18.3666 18.9904 18.6792 18.6779C18.9917 18.3653 19.1673 17.9414 19.1673 17.4993V17.291C19.1673 17.733 18.9917 18.157 18.6792 18.4695C18.3666 18.7821 17.9427 18.9577 17.5007 18.9577Z" fill="black"/>
<path opacity="0.2" d="M17.5007 0.833984H2.50065C2.05862 0.833984 1.6347 1.00958 1.32214 1.32214C1.00958 1.6347 0.833984 2.05862 0.833984 2.50065V2.70898C0.833984 2.26696 1.00958 1.84303 1.32214 1.53047C1.6347 1.21791 2.05862 1.04232 2.50065 1.04232H17.5007C17.9427 1.04232 18.3666 1.21791 18.6792 1.53047C18.9917 1.84303 19.1673 2.26696 19.1673 2.70898V2.50065C19.1673 2.05862 18.9917 1.6347 18.6792 1.32214C18.3666 1.00958 17.9427 0.833984 17.5007 0.833984Z" fill="white"/>
<path d="M8.33333 14.4563L3.75 9.87299L4.92833 8.69466L8.33333 12.0997L15.0717 5.36133L16.25 6.53966L8.33333 14.4563Z" fill="white"/>
<path d="M0.833984 2.50065V17.5007C0.833984 17.9427 1.00958 18.3666 1.32214 18.6792C1.6347 18.9917 2.05862 19.1673 2.50065 19.1673H17.5007C17.9427 19.1673 18.3666 18.9917 18.6792 18.6792C18.9917 18.3666 19.1673 17.9427 19.1673 17.5007V2.50065C19.1673 2.05862 18.9917 1.6347 18.6792 1.32214C18.3666 1.00958 17.9427 0.833984 17.5007 0.833984H2.50065C2.05862 0.833984 1.6347 1.00958 1.32214 1.32214C1.00958 1.6347 0.833984 2.05862 0.833984 2.50065Z" fill="url(#paint0_linear_1413_693)"/>
</g>
</g>
<defs>
<linearGradient id="paint0_linear_1413_693" x1="-0.543516" y1="5.08398" x2="20.5448" y2="14.9173" gradientUnits="userSpaceOnUse">
<stop stop-color="white" stop-opacity="0.2"/>
<stop offset="1" stop-color="white" stop-opacity="0"/>
</linearGradient>
<clipPath id="clip0_1413_693">
<rect width="20" height="20" fill="white"/>
</clipPath>
<clipPath id="clip1_1413_693">
<rect width="20" height="20" fill="white"/>
</clipPath>
</defs>
</svg>
